PathFileType	4	(X/Y/Z)	OpenSim_Sub09_CSBaseline_Gyro.trc
DataRate	CameraRate	NumFrames	NumMarkers	Units	OrigDataRate	OrigDataStartFrame	OrigNumFrames
100	100	16	8	m	100	2921	5840
Frame#	Time	torso_imu_offset_imu	pelvis_imu_offset_imu	tibia_r_imu_offset_imu	femur_r_imu_offset_imu	tibia_l_imu_offset_imu	femur_l_imu_offset_imu	toes_r_imu_offset_imu	toes_l_imu_offset_imu
				X1	Y1	Z1	X2	Y2	Z2	X3	Y3	Z3	X4	Y4	Z4	X5	Y5	Z5	X6	Y6	Z6	X7	Y7	Z7	X8		Y8	Z8	

2921	29.20000000	0.04548722	0.00867670	-0.03542562	0.00810963	-0.15360671	-0.00268479	-0.15464788	-0.08828476	-1.16082905	0.53523559	-0.08006986	-0.39565346	-0.80250861	0.26998763	-1.37425952	0.17900229	0.09172430	-0.11598684	0.21828935	-0.34349510	-0.46264139	-0.56580171	0.15017067	-2.43218735
2922	29.21000000	0.02569206	0.05316603	-0.03994772	-0.09867723	-0.21497757	-0.01454861	-0.21921420	-0.10061263	-1.22522752	0.56813102	-0.06839039	-0.32304044	-0.88047689	0.26413666	-0.94679983	0.12700268	0.06966500	-0.11585796	0.14204260	-0.44943367	-0.45088677	-0.79730209	-0.07197611	-2.12667902
2923	29.22000000	-0.00907575	0.09618576	-0.06313644	-0.19967255	-0.26510864	-0.01512124	-0.26061129	-0.09009782	-1.33115693	0.56307034	-0.03822064	-0.27381075	-1.01593933	0.16410736	-0.50695078	0.10428984	0.02538990	-0.09869153	0.17718653	-0.58098682	-0.41903079	-0.81704210	-0.21027916	-1.71896764
2924	29.23000000	-0.04955832	0.14175063	-0.08661768	-0.28475082	-0.30568673	-0.00365158	-0.27872241	-0.01059321	-1.43644617	0.48522252	-0.00115576	-0.22358152	-1.21513795	0.06907475	-0.03912621	0.07635527	-0.04297556	-0.09941416	0.13377199	-0.72112194	-0.38253043	-0.67181936	-0.32772953	-1.19949030
2925	29.24000000	-0.09450919	0.20678450	-0.10899176	-0.37026268	-0.34484121	0.01635846	-0.26261270	0.08603752	-1.51540081	0.34880532	0.05524537	-0.16392212	-1.33212042	-0.01533203	0.37867635	-0.01020495	-0.13057622	-0.11178184	0.11692929	-0.85224383	-0.34802179	-0.39665290	-0.49754487	-0.63178184
2926	29.25000000	-0.14798194	0.26830554	-0.12594148	-0.43796496	-0.37808182	0.04858345	-0.25235414	0.10149086	-1.63015408	0.19010115	0.11731773	-0.10871882	-1.30991861	-0.09469857	0.71176465	-0.12522370	-0.20246536	-0.14384742	0.07024961	-1.00335540	-0.30348924	-0.36456503	-0.94937673	0.18741576
2927	29.26000000	-0.19483492	0.33237153	-0.14265746	-0.51030585	-0.41830199	0.07774870	-0.24152313	0.12199828	-1.75003374	0.03274554	0.19232814	-0.04355739	-1.13320992	-0.20167478	0.99185791	-0.18858556	-0.33235904	-0.15511203	0.03145278	-1.15085242	-0.24610081	-1.10043556	-1.92115899	1.18852605
2928	29.27000000	-0.26057567	0.40443795	-0.15780922	-0.58050576	-0.44690975	0.11208731	-0.25940824	0.15800247	-1.86272567	-0.10654970	0.27768693	0.02558343	-0.93238615	-0.33540810	1.20871997	-0.17739498	-0.54179716	-0.15503227	-0.01671393	-1.31248652	-0.21215078	-1.55300632	-2.04445170	1.77115751
2929	29.28000000	-0.33138476	0.46037618	-0.17559865	-0.65159255	-0.46095982	0.13807045	-0.29035958	0.15385293	-1.92991849	-0.23772502	0.35898731	0.10794671	-0.50563021	-0.58590030	1.42151374	0.01693698	-0.80613114	-0.03226044	-0.04296176	-1.48479478	-0.21273023	-1.58271908	-1.86566064	1.79149490
2930	29.29000000	-0.39815006	0.48721295	-0.18926440	-0.70752815	-0.43927816	0.14998343	-0.26751969	0.11774816	-2.02226352	-0.26212977	0.43839320	0.18523277	-0.20738547	-0.81636683	1.58257437	0.18956482	-1.04934565	0.02314261	-0.07717524	-1.68029558	-0.23571851	-1.28463190	-1.68167366	1.31232671
2931	29.30000000	-0.46454758	0.47459286	-0.19092604	-0.74590593	-0.36442104	0.13404857	-0.21140897	0.04088519	-2.13280075	-0.17145177	0.53668423	0.26269354	0.00044310	-1.19978496	1.14853761	0.08308948	-1.15141828	0.10288877	-0.14576790	-1.90291076	-0.27816562	-0.83859172	-1.78352459	0.74787757
2932	29.31000000	-0.51820477	0.42033688	-0.21110128	-0.72726186	-0.28080623	0.08484213	-0.22472279	-0.09313172	-2.26202273	-0.03373090	0.65154477	0.36867144	1.39615338	-1.78469208	0.40149566	0.13412431	-1.25890721	0.22912739	-0.20197163	-2.17713165	-0.36885095	-0.55952892	-2.04810408	0.48507962
2933	29.32000000	-0.54559921	0.35567061	-0.23667013	-0.64934315	-0.22484418	0.01368076	-0.32203572	-0.17225945	-2.34206019	0.09852538	0.77448982	0.49654665	2.39685504	-1.61270018	0.43143058	0.35570490	-1.14870220	0.40872000	-0.25228930	-2.51483556	-0.52773490	0.02267515	-2.17895879	0.47473716
2934	29.33000000	-0.50634417	0.30519179	-0.24019750	-0.52931997	-0.15584251	-0.04409185	-0.36433723	-0.31203494	-2.36876008	0.13230632	0.88511313	0.67423114	1.11253539	-0.37516585	1.21072226	0.47088872	-0.86354689	0.43150127	-0.25248202	-2.92263894	-0.71200425	-0.45957668	-1.28662341	0.52105589
2935	29.34000000	-0.43705753	0.27466814	-0.24310010	-0.38518718	-0.07492050	-0.08576230	-0.36595420	-0.49250449	-2.36985229	0.05468436	1.01873171	0.87736128	-1.17634264	0.44133914	1.65819402	0.48302200	-0.75637685	0.48734854	-0.18167552	-3.42040157	-0.88992127	-0.33552800	-0.56442945	0.38594055
2936	29.35000000	-0.36852246	0.26812020	-0.23036563	-0.25917000	-0.06247334	-0.10513954	-0.44827925	-0.61645941	-2.43798298	-0.12962297	1.16801968	1.09156645	-2.65875828	0.40619346	1.77004437	0.28317066	-0.43445989	0.31882387	-0.20455330	-4.00458523	-1.07892803	-0.23429982	-0.63386107	0.23363914
